# xmcd CD database file
#
# Track frame offsets:
#	150
#	14499
#	30771
#	43511
#	52311
#	68824
#	84615
#	89441
#	102197
#	124066
#	140323
#	143930
#	159368
#	170486
#	188456
#	204881
#	226804
#
# Disc length: 3306 seconds
#
# Revision: 0
# Processed by: cddbd v1.5.2PL0 Copyright (c) Steve Scherf et al.
# Submitted via: CDex 1.97
#
DISCID=d80ce811
DTITLE=Typh Barrow - Raw
DYEAR=2017
DGENRE=Jazz
TTITLE0=The Whispers
TTITLE1=Daddy's Not Coming Back
TTITLE2=Taboo
TTITLE3=Raw Material (Interlude)
TTITLE4=The Absence
TTITLE5=Hurt
TTITLE6=Rose Of Spring (Interlude)
TTITLE7=Yellow Eyes
TTITLE8=To Those Who Wait
TTITLE9=Floating
TTITLE10=Midnight (Interlude)
TTITLE11=If I Ruled The World (With B.J. Scott)
TTITLE12=I Want You
TTITLE13=The Absence (Piano and Voice Version)
TTITLE14=Hurt (Piano and Voice Version)
TTITLE15=The House Of Rising Sun
TTITLE16=Daddy's Not Coming Back (Live Version)
EXTD=YEAR: 2017
EXTT0=
EXTT1=
EXTT2=
EXTT3=
EXTT4=
EXTT5=
EXTT6=
EXTT7=
EXTT8=
EXTT9=
EXTT10=
EXTT11=
EXTT12=
EXTT13=
EXTT14=
EXTT15=
EXTT16=
PLAYORDER=
